<?xml version="1.0" standalone="no"?>
<!DOCTYPE svg PUBLIC "-//W3C//DTD SVG 20010904//EN"
 "http://www.w3.org/TR/2001/REC-SVG-20010904/DTD/svg10.dtd">
<svg version="1.0" xmlns="http://www.w3.org/2000/svg"
 width="653.000000pt" height="200.000000pt" viewBox="0 0 653.000000 200.000000"
 preserveAspectRatio="xMidYMid meet">

<g transform="translate(0.000000,200.000000) scale(0.100000,-0.100000)"
fill="#000000" stroke="none">
<path d="M6290 1771 c0 -5 9 -11 20 -14 17 -4 20 -14 20 -62 0 -35 4 -54 10
-50 6 3 10 31 10 61 0 41 4 54 15 54 8 0 15 5 15 10 0 6 -20 10 -45 10 -25 0
-45 -4 -45 -9z"/>
<path d="M6410 1710 c0 -45 4 -69 10 -65 6 3 10 21 11 38 0 30 1 31 11 10 15
-31 32 -29 45 5 l11 27 1 -37 c1 -20 6 -40 11 -43 6 -4 10 20 10 64 0 39 -4
71 -8 71 -4 0 -18 -19 -29 -42 l-21 -43 -16 37 c-26 61 -36 56 -36 -22z"/>
<path d="M304 1340 c-118 -17 -213 -71 -250 -141 -41 -81 -36 -193 12 -256 32
-42 126 -86 244 -112 208 -48 270 -80 270 -143 0 -19 -7 -43 -15 -54 -39 -57
-175 -75 -254 -34 -42 21 -81 70 -81 103 0 15 -12 17 -114 17 l-113 0 8 -45
c30 -162 177 -255 404 -255 245 1 384 95 402 274 16 153 -69 228 -324 286 -73
16 -151 39 -173 50 -110 56 -58 160 80 160 80 -1 137 -29 158 -80 l17 -40 109
0 109 0 -7 43 c-8 47 -42 111 -78 144 -75 70 -248 106 -404 83z"/>
<path d="M1230 1339 c-121 -20 -249 -109 -300 -209 -100 -196 -67 -455 76
-591 94 -88 205 -125 354 -117 188 10 327 105 390 267 28 69 38 229 21 313
-27 126 -123 253 -226 299 -97 43 -205 56 -315 38z m178 -184 c77 -33 116 -93
132 -205 10 -72 2 -169 -19 -224 -32 -81 -99 -126 -189 -126 -76 0 -121 19
-162 68 -92 111 -73 389 31 463 57 41 143 50 207 24z"/>
<path d="M3207 1339 c-83 -19 -166 -81 -204 -152 l-18 -32 -3 83 -3 82 -109 0
-110 0 0 -440 0 -440 114 0 114 0 5 248 c4 267 9 296 60 357 47 57 99 79 190
79 l77 0 0 107 c0 102 -1 107 -22 113 -28 7 -43 6 -91 -5z"/>
<path d="M3659 1340 c-173 -27 -311 -161 -348 -338 -6 -29 -11 -91 -11 -137 0
-226 129 -392 340 -436 77 -16 212 -6 283 21 114 43 219 173 234 292 l6 39
-113 -3 -113 -3 -13 -44 c-14 -48 -53 -94 -98 -118 -47 -25 -154 -14 -199 19
-95 73 -122 290 -53 427 28 55 49 75 99 96 64 27 147 15 196 -29 13 -11 32
-40 43 -63 l19 -43 115 0 115 0 -7 38 c-21 123 -107 216 -240 261 -72 24 -179
33 -255 21z"/>
<path d="M4560 1339 c-171 -29 -314 -170 -351 -347 -15 -73 -6 -221 17 -287
41 -119 129 -212 241 -256 49 -20 77 -23 184 -24 125 0 125 0 201 38 87 43
132 89 179 182 l30 60 -102 3 -102 3 -30 -37 c-42 -51 -97 -74 -177 -74 -107
0 -168 40 -198 129 -7 19 -12 49 -12 67 l0 34 320 0 320 0 0 23 c-1 45 -21
163 -36 209 -38 115 -133 217 -237 256 -64 24 -174 33 -247 21z m165 -188 c22
-10 49 -28 59 -40 21 -23 57 -121 50 -133 -3 -5 -93 -8 -201 -8 l-196 0 6 41
c16 121 164 195 282 140z"/>
<path d="M1852 978 l3 -343 29 -64 c48 -103 136 -151 277 -151 94 0 168 29
232 91 28 27 52 49 54 49 2 0 3 -27 3 -60 l0 -60 115 0 115 0 0 440 0 440
-119 0 -119 0 -4 -282 c-3 -245 -6 -288 -21 -323 -28 -62 -63 -93 -121 -106
-93 -21 -174 20 -196 100 -5 20 -10 161 -10 324 l0 287 -121 0 -120 0 3 -342z"/>
</g>
</svg>
